#!OML:ASF H:\Dans Jumps\Project 1\Capture day 1\Session 1\subject.ASF
:FULLY-SPECIFIED
:DEGREES
373
root 0.271232 17.301 -6.64939 8.89568 0.592332 -0.905284
lowerback 4.73098 0.21173 -1.04336
upperback 5.66576 0.231877 1.2369
thorax 3.1778 0.0512285 1.85483
lowerneck -12.7809 -0.329326 -1.53791
upperneck 32.6596 -0.537312 1.4435
head 13.0484 -0.231964 0.753792
rclavicle -9.44227e-016 -9.34288e-015
rhumerus -51.8611 -26.0166 -54.308
rradius 20.6279
rwrist 43.63
rhand -17.9698 -22.5892
rfingers 7.12502
rthumb 8.2995 -52.4062
lclavicle -9.44227e-016 -9.34288e-015
lhumerus -41.4373 4.68895 74.7659
lradius 18.3072
lwrist 13.2129
lhand -28.2398 -7.05795
lfingers 7.12502
lthumb -1.61748 22.9157
rfemur -24.178 -3.61721 19.0735
rtibia 36.2832
rfoot -19.3169 -1.84158
rtoes 5.98347
lfemur -23.4368 5.39401 -19.2568
ltibia 33.5004
lfoot -15.9192 8.76344
ltoes 1.67395
374
root 0.269441 17.302 -6.64313 8.87516 0.539552 -0.907812
lowerback 4.70263 0.213686 -1.02751
upperback 5.66274 0.235109 1.22762
thorax 3.19039 0.0535074 1.83639
lowerneck -12.8047 -0.308015 -1.50256
upperneck 32.7318 -0.506694 1.41387
head 13.0835 -0.218296 0.741095
rclavicle -2.28602e-015 -8.94531e-015
rhumerus -51.566 -26.0482 -54.6028
rradius 20.694
rwrist 43.4491
rhand -18.0494 -22.617
rfingers 7.12502
rthumb 8.22268 -52.437
lclavicle -2.28602e-015 -8.94531e-015
lhumerus -41.3318 4.7171 74.8643
lradius 18.4374
lwrist 13.4628
lhand -28.225 -6.98079
lfingers 7.12502
lthumb -1.60324 22.9929
rfemur -24.1162 -3.59435 19.0764
rtibia 36.244
rfoot -19.3314 -1.79869
rtoes 6.03721
lfemur -23.363 5.43097 -19.2471
ltibia 33.4644
lfoot -15.9294 8.78961
ltoes 1.66243
375
root 0.267612 17.3029 -6.63701 8.85468 0.488495 -0.909751
lowerback 4.67461 0.216779 -1.01041
upperback 5.65898 0.23986 1.21918
thorax 3.20198 0.0565893 1.81808
lowerneck -12.8208 -0.286507 -1.46946
upperneck 32.7991 -0.474631 1.38272
head 13.1149 -0.204464 0.72837
rclavicle 9.93923e-017 3.97569e-016
rhumerus -51.262 -26.0383 -54.9376
rradius 20.7773
rwrist 43.2177
rhand -18.1268 -22.651
rfingers 7.12502
rthumb 8.14796 -52.4739
lclavicle 9.93923e-017 3.97569e-016
lhumerus -41.2144 4.73593 74.9728
lradius 18.5489
lwrist 13.6669
lhand -28.218 -6.93303
lfingers 7.12502
lthumb -1.5965 23.0407
rfemur -24.056 -3.57162 19.0784
rtibia 36.2081
rfoot -19.3472 -1.75084
rtoes 6.11621
lfemur -23.292 5.47016 -19.2382
ltibia 33.4308
lfoot -15.9371 8.81354
ltoes 1.63838
376
root 0.265744 17.3036 -6.63117 8.83539 0.441003 -0.913605
lowerback 4.64852 0.220945 -0.990995
upperback 5.65362 0.246013 1.21386
thorax 3.21077 0.0604259 1.80166
lowerneck -12.8215 -0.265416 -1.44533
upperneck 32.8526 -0.442027 1.35553
head 13.1372 -0.190973 0.718713
rclavicle -2.48481e-015 -5.96354e-016
rhumerus -50.9557 -26.0158 -55.2783
rradius 20.8653
rwrist 42.9786
rhand -18.1884 -22.6762
rfingers 7.12502
rthumb 8.08849 -52.5014
lclavicle -2.48481e-015 -5.96354e-016
lhumerus -41.081 4.74839 75.0912
lradius 18.6379
lwrist 13.811
lhand -28.2105 -6.92766
lfingers 7.12502
lthumb -1.58926 23.0462
rfemur -23.9996 -3.54982 19.0829
rtibia 36.176
rfoot -19.3625 -1.70401
rtoes 6.19713
lfemur -23.2259 5.50904 -19.2271
ltibia 33.4001
lfoot -15.941 8.83729
ltoes 1.60218
377
root 0.264002 17.3041 -6.62545 8.8177 0.394577 -0.915185
lowerback 4.62371 0.227357 -0.972196
upperback 5.64601 0.255114 1.20973
thorax 3.21638 0.0657299 1.78674
lowerneck -12.8155 -0.24626 -1.42646
upperneck 32.8988 -0.411827 1.33162
head 13.155 -0.178722 0.710845
rclavicle -1.49089e-016 1.98785e-016
rhumerus -50.6458 -25.9679 -55.636
rradius 20.9605
rwrist 42.718
rhand -18.237 -22.6878
rfingers 7.12502
rthumb 8.04161 -52.5148
lclavicle -1.49089e-016 1.98785e-016
lhumerus -40.9352 4.7501 75.2199
lradius 18.712
lwrist 13.8901
lhand -28.1939 -6.91199
lfingers 7.12502
lthumb -1.57317 23.062
rfemur -23.9472 -3.52987 19.0842
rtibia 36.148
rfoot -19.3803 -1.65487
rtoes 6.28555
lfemur -23.1633 5.54808 -19.2196
ltibia 33.3718
lfoot -15.9445 8.86123
ltoes 1.55966
378
root 0.262306 17.3044 -6.61999 8.80299 0.347133 -0.914671
lowerback 4.59827 0.237981 -0.955906
upperback 5.63711 0.269746 1.20653
thorax 3.22079 0.0737021 1.77411
lowerneck -12.8084 -0.229281 -1.41027
upperneck 32.9398 -0.385273 1.31175
head 13.1704 -0.167818 0.704452
rclavicle 2.28602e-015 1.41137e-014
rhumerus -50.3367 -25.9191 -55.9897
rradius 21.05
rwrist 42.4707
rhand -18.2932 -22.6722
rfingers 7.12502
rthumb 7.98735 -52.5013
lclavicle 2.28602e-015 1.41137e-014
lhumerus -40.7771 4.73579 75.3599
lradius 18.7775
lwrist 13.904
lhand -28.1631 -6.91924
lfingers 7.12502
lthumb -1.54339 23.0549
rfemur -23.9015 -3.50764 19.0829
rtibia 36.1238
rfoot -19.3978 -1.60777
rtoes 6.36732
lfemur -23.1056 5.5875 -19.2149
ltibia 33.3459
lfoot -15.9487 8.88486
ltoes 1.52095
379
root 0.260668 17.3047 -6.61472 8.78842 0.29863 -0.915194
lowerback 4.57244 0.250334 -0.94069
upperback 5.62884 0.286601 1.20536
thorax 3.226 0.082691 1.76413
lowerneck -12.7993 -0.214552 -1.40012
upperneck 32.9742 -0.362624 1.29885
head 13.1827 -0.158436 0.701216
rclavicle -1.09332e-015 -1.78906e-015
rhumerus -50.027 -25.8933 -56.3177
rradius 21.1194
rwrist 42.2845
rhand -18.3609 -22.6307
rfingers 7.12502
rthumb 7.92203 -52.4623
lclavicle -1.09332e-015 -1.78906e-015
lhumerus -40.6102 4.71885 75.5039
lradius 18.8387
lwrist 13.856
lhand -28.1139 -6.89992
lfingers 7.12502
lthumb -1.49596 23.0746
rfemur -23.8582 -3.48244 19.0821
rtibia 36.1023
rfoot -19.4147 -1.56275
rtoes 6.45008
lfemur -23.0492 5.62675 -19.2091
ltibia 33.3217
lfoot -15.9545 8.90863
ltoes 1.48966
380
root 0.259148 17.3048 -6.60958 8.77325 0.247263 -0.913299
lowerback 4.54785 0.264123 -0.929793
upperback 5.62032 0.30526 1.20441
thorax 3.23018 0.0924255 1.7568
lowerneck -12.7955 -0.201651 -1.38673
upperneck 33.0113 -0.342502 1.28305
head 13.1974 -0.150124 0.695936
rclavicle -4.22417e-015 -9.74045e-015
rhumerus -49.718 -25.8898 -56.6224
rradius 21.1674
rwrist 42.1672
rhand -18.4379 -22.5798
rfingers 7.12502
rthumb 7.84767 -52.4142
lclavicle -4.22417e-015 -9.74045e-015
lhumerus -40.4431 4.70265 75.6488
lradius 18.9052
lwrist 13.7564
lhand -28.0497 -6.89782
lfingers 7.12502
lthumb -1.43396 23.0771
rfemur -23.8164 -3.45683 19.0785
rtibia 36.082
rfoot -19.4305 -1.52298
rtoes 6.50219
lfemur -22.9926 5.66536 -19.2068
ltibia 33.2993
lfoot -15.9633 8.93453
ltoes 1.46503
381
root 0.257616 17.305 -6.60468 8.75687 0.194932 -0.914178
lowerback 4.52514 0.277454 -0.919547
upperback 5.61262 0.323241 1.20514
thorax 3.23421 0.101756 1.75157
lowerneck -12.7949 -0.1905 -1.37288
upperneck 33.0475 -0.324983 1.26706
head 13.2125 -0.142924 0.690107
rclavicle -1.68967e-015 -3.77691e-015
rhumerus -49.4081 -25.9036 -56.911
rradius 21.2009
rwrist 42.1108
rhand -18.5359 -22.5165
rfingers 7.12502
rthumb 7.75313 -52.3544
lclavicle -1.68967e-015 -3.77691e-015
lhumerus -40.2796 4.68826 75.7948
lradius 18.9821
lwrist 13.6337
lhand -27.9867 -6.89038
lfingers 7.12502
lthumb -1.37307 23.085
rfemur -23.7737 -3.42692 19.0776
rtibia 36.0614
rfoot -19.4436 -1.48571
rtoes 6.55733
lfemur -22.9357 5.70254 -19.2012
ltibia 33.2778
lfoot -15.9735 8.96077
ltoes 1.4482
382
root 0.256067 17.3052 -6.59993 8.73846 0.14163 -0.915992
lowerback 4.50442 0.289925 -0.911443
upperback 5.60489 0.339988 1.20741
thorax 3.23713 0.110365 1.74914
lowerneck -12.7917 -0.179487 -1.35985
upperneck 33.0794 -0.307496 1.2511
head 13.2251 -0.135849 0.684382
rclavicle -1.88845e-015 4.37326e-015
rhumerus -49.095 -25.8892 -57.2197
rradius 21.2453
rwrist 42.0525
rhand -18.6391 -22.448
rfingers 7.12502
rthumb 7.65351 -52.2895
lclavicle -1.88845e-015 4.37326e-015
lhumerus -40.1213 4.67312 75.9462
lradius 19.0666
lwrist 13.5193
lhand -27.9338 -6.90032
lfingers 7.12502
lthumb -1.32197 23.0753
rfemur -23.7296 -3.39601 19.0786
rtibia 36.0399
rfoot -19.4546 -1.45736
rtoes 6.57755
lfemur -22.8766 5.73884 -19.1942
ltibia 33.2566
lfoot -15.985 8.98779
ltoes 1.43497
383
root 0.254491 17.3055 -6.59515 8.71917 0.0892566 -0.91672
lowerback 4.48443 0.301526 -0.905471
upperback 5.59607 0.355531 1.20999
thorax 3.23854 0.118308 1.74826
lowerneck -12.7856 -0.168075 -1.34672
upperneck 33.1086 -0.28933 1.23469
head 13.236 -0.128535 0.678535
rclavicle 2.38542e-015 4.17448e-015
rhumerus -48.7846 -25.8316 -57.5594
rradius 21.3153
rwrist 41.9573
rhand -18.7427 -22.3846
rfingers 7.12502
rthumb 7.55347 -52.2297
lclavicle 2.38542e-015 4.17448e-015
lhumerus -39.9688 4.64454 76.1098
lradius 19.1568
lwrist 13.4502
lhand -27.9053 -6.9202
lfingers 7.12502
lthumb -1.29447 23.0556
rfemur -23.6834 -3.36433 19.0784
rtibia 36.0173
rfoot -19.4658 -1.43113
rtoes 6.60004
lfemur -22.8164 5.77325 -19.1884
ltibia 33.2347
lfoot -15.9965 9.01532
ltoes 1.4278
384
root 0.252836 17.3058 -6.59044 8.69993 0.0398297 -0.916642
lowerback 4.46425 0.313067 -0.900005
upperback 5.58585 0.370978 1.2133
thorax 3.23861 0.126189 1.74841
lowerneck -12.7718 -0.156182 -1.33329
upperneck 33.1322 -0.269623 1.21551
head 13.2427 -0.120861 0.67172
rclavicle -2.48481e-015 -7.15625e-015
rhumerus -48.4883 -25.7646 -57.8975
rradius 21.4008
rwrist 41.842
rhand -18.8391 -22.3256
rfingers 7.12502
rthumb 7.46049 -52.1741
lclavicle -2.48481e-015 -7.15625e-015
lhumerus -39.818 4.59428 76.291
lradius 19.25
lwrist 13.4521
lhand -27.903 -6.9518
lfingers 7.12502
lthumb -1.29219 23.024
rfemur -23.6367 -3.33236 19.0781
rtibia 35.9939
rfoot -19.4769 -1.41124
rtoes 6.61306
lfemur -22.7563 5.80492 -19.1828
ltibia 33.2114
lfoot -16.0056 9.04304
ltoes 1.41104
385
root 0.251128 17.3061 -6.58564 8.6811 -0.00328985 -0.913941
lowerback 4.44279 0.323577 -0.895175
upperback 5.57391 0.385061 1.21674
thorax 3.23764 0.133386 1.74908
lowerneck -12.7502 -0.143946 -1.31984
upperneck 33.1533 -0.248436 1.19337
head 13.2468 -0.112917 0.663927
rclavicle -2.08724e-015 -7.95139e-015
rhumerus -48.2071 -25.6856 -58.2359
rradius 21.5006
rwrist 41.6848
rhand -18.9344 -22.2745
rfingers 7.12502
rthumb 7.36844 -52.1262
lclavicle -2.08724e-015 -7.95139e-015
lhumerus -39.6689 4.51761 76.4907
lradius 19.3423
lwrist 13.5362
lhand -27.9183 -6.97556
lfingers 7.12502
lthumb -1.30696 23.0002
rfemur -23.5887 -3.30428 19.0756
rtibia 35.9706
rfoot -19.4911 -1.39409
rtoes 6.62769
lfemur -22.696 5.8322 -19.1795
ltibia 33.186
lfoot -16.0129 9.06864
ltoes 1.39163
386
root 0.249363 17.3065 -6.58078 8.66293 -0.0413886 -0.908422
lowerback 4.41911 0.334179 -0.890642
upperback 5.56143 0.399289 1.21976
thorax 3.23734 0.140656 1.74949
lowerneck -12.7228 -0.132678 -1.3104
upperneck 33.174 -0.228004 1.1726
head 13.2493 -0.105602 0.657253
rclavicle -2.98177e-015 -1.25234e-014
rhumerus -47.9427 -25.6199 -58.5545
rradius 21.5977
rwrist 41.5045
rhand -19.0411 -22.2278
rfingers 7.12502
rthumb 7.26548 -52.0831
lclavicle -2.98177e-015 -1.25234e-014
lhumerus -39.5198 4.41081 76.709
lradius 19.4344
lwrist 13.6951
lhand -27.9394 -6.99321
lfingers 7.12502
lthumb -1.32736 22.9824
rfemur -23.5407 -3.2794 19.0707
rtibia 35.9478
rfoot -19.5074 -1.38059
rtoes 6.63318
lfemur -22.6357 5.85519 -19.1786
ltibia 33.1585
lfoot -16.0203 9.09139
ltoes 1.37697
